<?xml version="1.0" standalone="no"?>
<!DOCTYPE svg PUBLIC "-//W3C//DTD SVG 20010904//EN"
 "http://www.w3.org/TR/2001/REC-SVG-20010904/DTD/svg10.dtd">
<svg version="1.0" xmlns="http://www.w3.org/2000/svg"
 width="1500.000000pt" height="1500.000000pt" viewBox="0 0 1500.000000 1500.000000"
 preserveAspectRatio="xMidYMid meet">
<metadata>
Created by potrace 1.11, written by Peter Selinger 2001-2013
</metadata>
<g transform="translate(0.000000,1500.000000) scale(0.100000,-0.100000)"
fill="#000000" stroke="none">
<path d="M6900 10046 c-38 -6 -55 -12 -40 -14 22 -2 25 -8 28 -50 9 -153 -5
-863 -17 -875 -5 -5 -24 -12 -43 -16 -30 -6 -33 -10 -40 -55 -4 -26 -14 -56
-24 -67 -15 -17 -15 -21 -1 -42 9 -14 28 -27 43 -30 22 -4 33 2 60 31 18 20
36 33 40 29 4 -4 0 -15 -10 -26 -14 -16 -17 -39 -15 -162 3 -185 -3 -195 -126
-219 -22 -5 -60 -14 -84 -21 -34 -9 -46 -10 -49 -1 -5 15 -62 16 -62 2 0 -5
-16 -10 -35 -10 -19 0 -35 5 -35 10 0 15 -58 12 -63 -2 -3 -10 -9 -10 -26 0
-25 15 -26 9 -5 -23 15 -24 15 -25 -4 -25 -11 0 -22 6 -25 14 -4 10 -18 13
-44 11 -51 -4 -78 7 -38 16 17 4 -8 4 -54 1 -60 -4 -82 -2 -77 6 4 6 -12 19
-39 31 -41 18 -69 20 -232 21 -102 1 -189 -2 -194 -7 -11 -11 -13 -51 -3 -83
7 -24 7 -24 -13 -7 -11 9 -25 17 -31 17 -6 0 -15 7 -20 16 -13 23 -35 7 -28
-20 5 -21 2 -22 -47 -20 -29 1 -609 5 -1291 9 l-1238 6 -30 29 c-29 29 -78 41
-78 19 0 -8 -4 -9 -13 0 -9 7 -55 11 -118 10 -242 -2 -299 0 -293 14 2 7 -4
22 -16 32 -24 21 -26 53 -5 61 22 9 19 34 -16 121 -29 73 -32 96 -59 412 -16
184 -34 339 -39 344 -12 12 -111 22 -143 14 l-23 -6 5 -418 c3 -239 2 -421 -3
-424 -5 -4 -4 -10 2 -13 13 -9 14 -95 1 -116 -8 -12 -13 -11 -33 8 -29 27 -63
30 -51 5 9 -20 9 -27 5 -272 l-4 -173 -31 -13 c-30 -13 -29 -14 24 -9 75 7 81
0 71 -66 -6 -36 -5 -59 1 -67 12 -15 3 -20 -72 -32 l-55 -9 67 -1 66 -1 -5
-77 c-6 -87 -14 -102 -52 -104 -25 -1 -25 -2 4 -9 29 -7 29 -8 5 -10 -18 -2
-20 -4 -8 -7 25 -6 22 -21 -4 -26 -17 -3 -14 -5 9 -6 24 -1 31 -5 27 -16 -4
-8 -18 -15 -33 -15 -14 0 -33 -5 -41 -11 -11 -8 3 -8 50 -3 109 12 125 11 122
-8 -4 -22 26 -23 148 -4 47 7 89 11 94 8 11 -6 0 -117 -14 -140 -7 -14 -9 -10
-10 17 l0 34 -92 -7 c-51 -4 -93 -8 -93 -9 -1 -1 0 -23 3 -49 l4 -48 41 0 c24
0 48 7 59 17 11 9 18 11 18 5 0 -7 7 -12 16 -12 25 0 11 -23 -19 -31 -15 -4
-55 -9 -89 -11 -58 -3 -63 -1 -66 18 -2 15 -17 27 -47 39 -25 9 -43 22 -42 28
3 18 -135 19 -248 2 -156 -24 -585 -108 -585 -116 0 -3 24 -9 53 -12 28 -3 74
-15 100 -26 45 -19 68 -21 280 -21 252 0 339 -9 554 -59 241 -55 293 -44 243
51 -11 22 -20 41 -18 43 2 1 32 12 67 24 104 34 283 29 741 -20 241 -26 323
-22 370 18 23 19 30 33 30 61 0 48 22 58 159 72 l104 10 24 -26 c23 -25 27
-26 95 -20 39 4 143 25 232 47 365 91 512 116 891 154 143 15 264 31 270 36
11 11 11 11 -200 -1 -336 -20 -634 -41 -865 -61 -302 -27 -300 -28 -300 17 0
16 -6 24 -17 25 -14 0 -13 3 5 12 18 8 28 8 43 -2 11 -6 28 -10 37 -7 14 5 17
22 19 98 2 51 6 110 9 131 6 37 5 37 -28 37 -24 0 -29 3 -18 10 20 13 9 21
-39 27 -23 3 -41 10 -41 15 0 20 52 98 66 98 7 0 33 6 56 14 34 11 171 16 673
21 347 3 638 8 647 11 11 3 18 -2 20 -17 4 -30 28 -36 35 -10 8 30 40 27 45
-4 4 -18 1 -25 -11 -25 -13 0 -13 -2 2 -17 16 -16 47 -19 272 -23 231 -5 255
-3 255 11 0 25 28 45 43 30 8 -8 4 -26 -20 -74 -16 -34 -34 -77 -38 -95 -4
-22 -12 -32 -20 -28 -22 8 -26 -6 -6 -21 11 -7 20 -21 20 -31 0 -9 1 -26 3
-37 2 -14 -3 -21 -20 -23 -21 -3 -23 0 -20 34 4 46 -15 55 -32 14 -11 -27 -10
-32 11 -51 21 -18 22 -20 4 -15 -18 5 -18 4 3 -10 28 -21 28 -48 1 -68 -13 -9
-19 -21 -16 -30 3 -8 -3 -26 -14 -39 -10 -14 -19 -34 -19 -45 0 -10 -9 -27
-20 -37 -11 -10 -20 -26 -20 -37 0 -10 -9 -27 -20 -38 -11 -11 -20 -28 -20
-39 0 -10 -8 -29 -19 -42 -10 -13 -16 -29 -14 -34 2 -6 -6 -21 -17 -33 -11
-11 -20 -30 -20 -42 0 -11 -9 -29 -20 -40 -11 -11 -20 -29 -20 -40 0 -11 -9
-29 -20 -40 -12 -12 -18 -25 -15 -30 4 -6 -3 -23 -14 -39 -12 -16 -21 -35 -21
-43 0 -8 -9 -24 -20 -36 -11 -12 -20 -30 -20 -40 0 -10 -9 -28 -20 -40 -11
-12 -20 -30 -20 -42 0 -11 -9 -29 -20 -40 -11 -11 -17 -25 -15 -33 3 -7 -4
-22 -15 -34 -11 -12 -20 -31 -20 -41 0 -10 -9 -28 -20 -40 -11 -12 -20 -30
-20 -40 0 -10 -9 -28 -20 -40 -11 -11 -17 -28 -14 -36 3 -9 1 -16 -5 -16 -6 0
-11 -6 -11 -14 0 -8 -7 -17 -16 -20 -9 -4 -13 -13 -10 -24 4 -11 -2 -27 -14
-40 -11 -11 -20 -30 -20 -40 0 -10 -9 -28 -20 -40 -11 -12 -20 -30 -20 -40 0
-10 -9 -27 -20 -37 -11 -10 -18 -26 -15 -35 3 -9 -4 -26 -15 -38 -11 -11 -20
-30 -20 -40 0 -10 -9 -28 -20 -40 -11 -12 -20 -30 -20 -42 0 -11 -4 -20 -10
-20 -5 0 -10 -7 -10 -15 0 -8 -5 -15 -11 -15 -6 0 -9 -8 -7 -17 2 -10 -6 -29
-18 -42 -12 -13 -20 -30 -17 -37 2 -7 -5 -23 -16 -35 -12 -13 -21 -33 -21 -46
0 -13 -4 -23 -10 -23 -5 0 -10 -7 -10 -15 0 -8 -4 -15 -10 -15 -5 0 -10 -8
-10 -19 0 -10 -9 -30 -21 -45 -11 -14 -18 -30 -14 -36 3 -5 -5 -21 -19 -35
-14 -14 -23 -32 -20 -40 7 -16 -18 -45 -38 -45 -8 0 -20 6 -28 13 -8 6 -7 3 2
-8 16 -20 15 -26 -37 -132 -37 -77 -63 -117 -85 -133 -22 -16 -30 -28 -27 -41
3 -11 -2 -24 -12 -32 -17 -11 -41 -48 -41 -62 0 -4 14 7 31 24 36 37 79 42 79
10 0 -45 -17 -59 -76 -59 -73 0 -117 -20 -153 -70 -55 -76 -50 -158 12 -217
93 -89 239 -43 278 87 7 23 29 58 48 79 154 162 181 197 181 236 0 17 16 63
35 104 19 40 33 77 30 81 -7 11 12 53 190 415 148 302 252 515 395 810 43 88
139 286 215 440 75 154 157 323 182 375 25 52 48 97 50 99 2 3 11 -3 20 -12
16 -16 16 -19 0 -46 -21 -36 -21 -41 -2 -41 18 0 20 -16 3 -23 -9 -3 -4 -14
15 -31 15 -15 27 -33 27 -41 0 -9 14 -29 30 -47 17 -17 30 -36 30 -43 0 -6 9
-21 20 -32 17 -18 25 -20 52 -12 18 5 51 22 73 37 22 16 55 34 73 40 46 16 92
50 92 70 1 14 210 187 242 200 4 2 8 -7 8 -20 0 -31 35 -51 81 -47 60 4 69 1
69 -26 0 -17 -6 -25 -17 -26 -14 0 -13 -3 5 -11 14 -7 20 -17 17 -27 -2 -9 -7
-36 -10 -60 -3 -24 -8 -47 -10 -52 -3 -4 5 -11 17 -15 l21 -6 -24 -14 c-13 -7
-18 -13 -11 -14 6 0 12 -6 12 -13 0 -8 12 -19 26 -25 28 -13 24 -29 -12 -42
-27 -11 -31 -28 -9 -36 12 -5 15 -27 15 -113 0 -59 3 -196 7 -303 l6 -196 54
-12 c42 -9 65 -9 104 0 27 7 55 10 63 7 15 -6 26 172 26 445 l0 167 48 6 c59
8 72 12 72 23 0 5 -12 7 -27 4 -23 -4 -26 -2 -16 8 10 11 9 16 -4 25 -14 11
-13 13 9 18 14 4 29 14 32 23 5 13 1 15 -17 10 -19 -4 -23 -2 -22 14 1 11 4
23 8 26 4 4 7 36 7 70 0 57 -2 63 -22 67 l-23 4 23 2 c21 1 33 31 12 31 -7 0
-7 7 0 20 6 11 15 18 19 15 11 -6 21 19 21 51 0 20 5 24 28 24 34 0 259 -170
272 -206 10 -26 40 -48 89 -65 18 -6 56 -27 84 -46 65 -44 105 -42 128 3 8 18
27 46 42 64 15 17 27 38 27 45 0 8 8 19 19 24 10 6 24 24 31 40 10 26 9 34 -8
58 -15 21 -18 33 -11 46 22 39 10 61 374 -688 45 -93 135 -278 200 -410 65
-132 155 -316 200 -410 45 -93 130 -268 189 -388 58 -120 104 -222 101 -227
-3 -4 8 -37 25 -72 16 -34 30 -76 30 -91 0 -53 26 -88 187 -253 26 -26 44 -56
48 -78 8 -42 63 -109 105 -126 41 -17 125 -8 158 17 42 31 66 80 65 133 -2
108 -87 183 -200 175 l-52 -4 -7 34 c-3 19 -3 38 0 44 9 14 64 -7 77 -30 5
-10 15 -19 21 -19 12 0 -17 48 -41 68 -14 12 -14 13 1 8 15 -4 15 -1 1 47 -22
73 -121 268 -151 295 -17 17 -23 19 -18 7 10 -27 -4 -36 -25 -16 -11 10 -17
24 -14 32 3 8 -5 26 -17 39 -12 13 -23 29 -23 35 -1 23 -17 54 -31 59 -8 3
-13 10 -10 15 8 12 -14 61 -26 61 -5 0 -6 9 -3 20 4 11 2 20 -4 20 -6 0 -11 5
-11 11 0 7 -7 17 -17 24 -19 14 -9 37 12 28 8 -3 15 -1 15 4 0 17 -13 23 -25
13 -9 -8 -18 -3 -31 17 -10 16 -19 33 -20 38 -3 24 -17 55 -24 55 -4 0 -11 15
-14 34 -4 23 -14 37 -27 41 -17 6 -18 9 -7 22 11 13 15 12 36 -13 l23 -29 -17
37 c-13 27 -21 35 -29 28 -9 -7 -18 -2 -31 17 -10 16 -17 32 -16 36 1 5 -7 21
-18 37 -11 15 -20 33 -20 40 0 7 -9 25 -21 42 -12 16 -18 32 -15 35 3 4 -5 21
-19 39 -28 36 -30 44 -14 44 15 0 38 -30 39 -50 0 -15 39 -72 40 -59 0 4 -23
55 -51 114 -36 75 -54 103 -60 93 -7 -10 -13 -8 -29 12 -24 30 -25 40 -5 40 8
0 15 -7 15 -15 0 -8 5 -15 10 -15 16 0 37 -47 -216 470 -330 673 -321 654
-310 672 7 12 4 29 -13 65 -12 27 -24 60 -25 75 -2 14 -15 49 -30 77 -14 28
-26 53 -26 56 0 3 109 5 242 5 l241 0 46 26 c25 15 55 35 67 46 20 18 45 18
675 16 497 -3 663 -7 692 -16 26 -9 45 -26 63 -53 41 -65 41 -67 -11 -75 -26
-3 -49 -13 -52 -20 -3 -8 -12 -14 -20 -14 -13 0 -14 -19 -10 -132 4 -114 7
-133 21 -136 35 -7 55 39 32 76 -12 20 -16 131 -5 137 5 4 23 4 39 0 29 -6 30
-8 30 -70 0 -35 -4 -67 -10 -70 -14 -9 -8 -58 10 -72 10 -8 11 -12 3 -13 -20
0 -16 -67 3 -78 11 -6 15 -17 12 -30 -7 -24 2 -27 132 -37 41 -3 96 -8 123
-12 46 -5 47 -5 43 18 -3 13 -5 26 -5 28 -1 3 -8 -4 -16 -15 -12 -16 -14 -16
-15 -3 0 27 -104 42 -113 17 -6 -19 -19 -2 -19 24 0 18 -10 28 -42 41 -23 9
-56 17 -74 17 -20 0 -31 4 -27 10 4 6 70 10 165 10 l159 0 3 -27 c3 -27 5 -28
68 -28 63 0 65 1 68 28 2 15 8 27 13 27 5 0 9 52 9 120 l0 120 40 0 40 0 0
-59 c0 -78 -6 -91 -44 -92 -30 -2 -30 -2 -3 -6 15 -2 27 -8 27 -12 0 -5 -12
-7 -27 -4 -23 3 -25 2 -8 -6 16 -6 17 -9 5 -13 -8 -3 -5 -3 7 -2 12 2 25 0 28
-6 3 -5 12 -10 19 -10 16 0 27 234 16 322 -4 29 -5 72 -2 95 l5 43 270 0 c232
0 273 -2 288 -16 9 -8 43 -19 73 -23 31 -4 60 -12 65 -17 38 -44 71 -95 67
-102 -3 -5 -31 -15 -62 -22 -93 -22 -94 -25 -84 -160 5 -63 9 -131 9 -151 1
-32 5 -37 37 -47 37 -11 64 -7 64 10 0 6 -6 8 -13 5 -21 -8 -41 8 -31 24 13
21 13 68 -1 79 -7 6 -13 41 -14 89 l-2 79 40 7 c22 4 45 4 51 0 5 -3 10 -41
10 -85 0 -65 -3 -81 -17 -89 -10 -5 -15 -13 -11 -16 4 -4 3 -18 -2 -31 -8 -21
-7 -24 11 -24 15 0 19 -5 15 -15 -4 -11 1 -15 18 -15 20 0 25 -6 29 -37 2 -21
1 -42 -4 -47 -4 -5 -67 -9 -141 -10 -113 -1 -137 -4 -161 -20 -41 -28 -102
-36 -192 -25 -122 14 -546 59 -561 59 -17 0 -20 -65 -4 -75 6 -4 8 -21 4 -40
-17 -90 23 -110 211 -102 77 3 199 13 270 21 72 9 218 19 325 22 l195 7 104
-32 c57 -18 123 -36 145 -40 38 -6 41 -9 41 -39 0 -18 7 -37 15 -42 30 -19
154 -10 327 25 239 48 381 63 708 70 211 6 287 11 308 21 15 8 55 21 90 28 34
8 55 14 47 15 -9 1 -124 16 -255 35 -338 49 -746 89 -820 81 -99 -10 -125 -16
-125 -31 0 -8 -9 -23 -20 -34 -12 -12 -18 -26 -14 -32 9 -15 -226 -2 -241 13
-17 17 13 27 58 19 23 -4 68 -11 100 -15 l57 -6 0 45 c0 31 5 48 16 54 11 6
-28 12 -116 18 l-132 9 7 -50 c5 -41 4 -48 -7 -37 -7 7 -12 30 -12 52 1 22 -2
40 -7 40 -14 0 -10 70 4 76 12 4 113 -5 230 -22 47 -7 49 -6 45 17 -3 23 -1
24 52 22 30 -1 49 0 43 3 -21 9 -15 34 7 34 11 0 20 5 20 11 0 5 -4 8 -9 4 -5
-3 -12 -1 -16 5 -3 5 2 10 12 11 13 1 11 3 -7 9 l-25 8 25 1 25 1 -25 13 c-23
11 -25 19 -30 96 l-5 83 63 -4 c46 -3 62 -1 62 9 0 9 -14 13 -42 13 -67 0 -79
16 -22 28 36 8 51 8 57 -1 4 -7 6 13 5 43 l-3 55 -45 6 -45 6 42 1 c50 2 64
17 24 25 l-29 6 -1 133 c-1 73 -4 166 -8 206 -5 66 -4 76 17 104 l23 31 -45
-5 -45 -5 -1 38 c-1 27 3 41 16 48 15 9 15 10 1 11 -23 0 -28 74 -36 488 l-6
342 24 0 c28 0 44 -9 52 -30 5 -10 6 -9 4 5 -4 33 -90 56 -171 46 -36 -4 -68
-10 -71 -13 -3 -3 -12 -79 -21 -169 -8 -90 -19 -200 -24 -244 -5 -44 -12 -118
-15 -165 -5 -55 -19 -119 -40 -182 -33 -95 -33 -97 -14 -114 24 -22 24 -36 -1
-59 -11 -10 -20 -24 -20 -32 0 -7 -6 -13 -12 -13 -7 -1 -98 -3 -203 -6 -121
-4 -195 -10 -204 -17 -12 -9 -13 -9 -7 1 15 25 -54 14 -79 -14 l-24 -25 -413
-4 c-227 -2 -802 -7 -1278 -10 -475 -4 -866 -7 -870 -7 -3 0 -12 0 -20 1 -12
1 -11 4 3 12 17 10 17 12 2 30 -10 10 -34 24 -54 30 -20 7 -39 17 -43 23 -11
16 -398 9 -418 -8 -8 -7 -23 -16 -32 -19 -10 -4 -18 -10 -18 -14 0 -12 -102
-14 -117 -2 -7 6 -18 9 -25 6 -8 -3 -3 -9 12 -15 29 -12 28 -13 -23 -17 -34
-4 -37 -2 -32 16 4 13 2 19 -9 19 -9 0 -16 -7 -16 -15 0 -8 -4 -15 -10 -15 -5
0 -7 7 -4 15 4 8 1 15 -5 15 -6 0 -11 -4 -11 -10 0 -5 -7 -10 -15 -10 -8 0
-15 5 -15 10 0 6 -16 10 -35 10 -19 0 -35 -4 -35 -10 0 -5 -13 -10 -30 -10
-21 0 -30 5 -30 16 0 13 3 14 15 4 12 -10 19 -4 45 37 17 26 33 57 36 68 3 11
4 216 2 455 l-3 435 -30 55 c-33 60 -48 66 -53 23 -2 -15 -11 -37 -20 -47 -16
-18 -16 -19 1 -13 17 6 17 -18 15 -491 l-3 -497 -60 -3 c-61 -4 -201 23 -211
39 -3 5 -9 7 -14 4 -5 -3 -16 5 -25 19 -13 19 -16 49 -14 145 2 121 8 143 33
122 19 -16 83 5 101 33 27 40 36 86 19 93 -7 3 -14 10 -14 17 -1 27 -48 67
-82 70 -19 2 -40 6 -47 10 -8 5 -11 78 -11 249 0 133 -4 259 -9 280 -5 20 -8
37 -6 37 6 0 50 -76 61 -105 17 -48 65 -74 126 -69 91 8 129 45 131 128 1 28
4 35 17 31 10 -3 28 7 46 26 28 29 28 31 10 44 -10 8 -24 16 -29 18 -8 2 -7
13 1 33 9 21 10 38 3 55 -9 22 -10 21 -10 -14 -1 -52 -24 -44 -32 12 -11 81
-74 131 -166 131 -28 0 -54 -4 -57 -9 -3 -4 -20 -11 -38 -15 -36 -7 -48 4 -48
47 0 25 3 27 38 27 20 -1 82 -7 137 -14 55 -7 102 -12 104 -10 5 5 -32 12
-214 38 -159 23 -195 25 -545 24 -210 -1 -404 -6 -440 -12z m700 -66 c0 -5
-14 -10 -31 -10 -17 0 -28 4 -24 10 3 6 17 10 31 10 13 0 24 -4 24 -10z m211
-120 c-9 -23 -10 -23 -10 11 -1 20 2 39 7 43 11 12 14 -27 3 -54z m282 32 c10
-11 17 -38 18 -65 3 -59 -15 -83 -25 -35 -3 18 -18 50 -31 70 -14 21 -25 40
-25 43 0 13 49 3 63 -13z m-406 -44 c-3 -7 -5 -2 -5 12 0 14 2 19 5 13 2 -7 2
-19 0 -25z m-655 -45 c-4 -46 -22 -60 -22 -17 0 23 18 70 24 62 2 -1 1 -22 -2
-45z m228 28 c0 -5 -16 -9 -35 -9 -19 0 -35 4 -35 9 0 5 16 9 35 9 19 0 35 -4
35 -9z m-30 -41 c0 -5 -2 -10 -4 -10 -3 0 -8 5 -11 10 -3 6 -1 10 4 10 6 0 11
-4 11 -10z m20 -62 c0 -11 -48 -10 -54 1 -3 4 8 8 24 7 17 -1 30 -4 30 -8z
m5097 -325 c-3 -10 -5 -4 -5 12 0 17 2 24 5 18 2 -7 2 -21 0 -30z m-10 -105
c-2 -13 -4 -5 -4 17 -1 22 1 32 4 23 2 -10 2 -28 0 -40z m-10 -110 c-3 -7 -5
-2 -5 12 0 14 2 19 5 13 2 -7 2 -19 0 -25z m-4397 -168 c0 -5 -2 -10 -4 -10
-3 0 -8 5 -11 10 -3 6 -1 10 4 10 6 0 11 -4 11 -10z m-1060 -524 c0 -2 -7 -9
-15 -16 -12 -10 -15 -10 -15 4 0 9 7 16 15 16 8 0 15 -2 15 -4z m985 -6 c-3
-5 -10 -10 -16 -10 -5 0 -9 5 -9 10 0 6 7 10 16 10 8 0 12 -4 9 -10z m-4311
-316 c12 -5 16 -20 16 -60 0 -30 3 -53 8 -52 21 5 251 -15 263 -24 11 -7 9 -8
-6 -4 -11 2 -76 6 -145 8 l-125 3 0 -30 c0 -28 3 -31 58 -44 52 -12 56 -15 40
-27 -15 -11 -15 -15 -5 -23 11 -6 13 -32 10 -108 -3 -55 -8 -105 -12 -111 -4
-7 -2 -12 3 -12 6 0 11 -18 11 -40 0 -37 -2 -40 -37 -48 -21 -5 -87 -17 -148
-27 -60 -9 -115 -21 -121 -26 -15 -12 -118 -39 -149 -39 -13 0 -27 -4 -30 -10
-3 -5 -23 -10 -43 -10 -24 0 -32 -3 -23 -9 8 -5 -3 -9 -32 -9 -68 -2 -157 -12
-201 -23 -36 -10 -66 -5 -35 5 83 28 121 38 196 51 168 31 173 32 79 29 -49
-2 -86 -1 -83 3 4 3 -3 13 -16 22 -24 17 -134 19 -221 2 -66 -12 -86 -5 -86
29 0 51 9 60 56 60 24 0 44 -4 44 -10 0 -12 69 -13 87 -2 8 5 14 51 18 127 4
66 12 130 18 143 17 36 -1 54 -81 81 -40 13 -72 29 -72 35 0 6 18 32 40 57 35
41 45 47 92 53 29 4 64 16 78 26 23 18 44 20 282 20 141 0 263 -3 272 -6z
m9064 -127 l3 -38 -38 3 c-36 3 -38 5 -41 41 l-3 38 38 -3 c36 -3 38 -5 41
-41z m-5959 -66 c7 -47 6 -56 -21 -99 -17 -26 -43 -59 -59 -74 -16 -15 -29
-34 -29 -44 0 -16 -66 -114 -77 -114 -11 0 -32 35 -33 52 0 10 13 32 28 50 16
18 47 68 70 112 33 61 40 81 31 92 -9 11 -8 18 2 31 16 18 71 54 76 49 2 -2 7
-27 12 -55z m1457 33 c21 -15 40 -28 42 -29 2 -2 -2 -12 -9 -23 -11 -17 -6
-31 31 -103 24 -46 49 -88 57 -92 7 -4 20 -22 29 -38 14 -28 14 -33 -1 -55 -8
-13 -19 -24 -23 -24 -11 0 -82 114 -82 132 0 9 -11 23 -23 31 -13 9 -38 37
-55 64 -28 44 -31 53 -25 106 3 31 9 57 13 57 4 0 25 -12 46 -26z m-888 -10
c32 -4 46 -11 54 -29 6 -13 19 -26 29 -28 11 -3 19 -9 19 -14 0 -8 -465 -11
-474 -3 -2 3 -7 23 -10 45 l-6 40 172 -3 c95 -1 192 -5 216 -8z m642 -29 l0
-44 -240 -3 c-132 -2 -240 -1 -240 1 0 2 11 14 24 26 13 12 25 28 28 36 4 11
44 15 209 20 112 3 207 6 212 7 4 1 7 -18 7 -43z m-480 11 c0 -18 -15 -36 -30
-36 -20 0 -43 23 -33 33 7 8 63 10 63 3z m-4542 -62 c21 -6 22 -12 22 -90 0
-49 -4 -84 -10 -84 -5 0 -10 -7 -10 -15 0 -8 7 -15 15 -15 23 0 18 -17 -7 -25
-14 -4 -18 -8 -10 -12 6 -2 12 -12 12 -20 0 -12 -7 -14 -32 -9 -38 8 -42 11
-32 28 5 7 7 61 6 120 -4 130 -3 135 46 122z m1343 -61 c-4 -44 -5 -46 -12
-18 -11 48 -10 65 4 65 9 0 11 -14 8 -47z m2085 -20 c-8 -15 -15 -25 -16 -21
0 12 23 58 27 54 3 -2 -2 -17 -11 -33z m592 -8 c6 -5 -212 -154 -220 -149 -15
10 -8 39 17 68 14 16 25 24 25 18 0 -18 17 -14 60 14 24 16 40 35 40 46 0 16
5 18 38 12 20 -4 38 -8 40 -9z m1060 4 c-2 -6 -8 -10 -13 -10 -5 0 -11 4 -13
10 -2 6 4 11 13 11 9 0 15 -5 13 -11z m-898 -9 c0 -5 -7 -10 -15 -10 -24 0
-17 -20 11 -30 40 -16 84 -12 91 7 4 9 1 19 -5 21 -25 8 -10 23 21 20 30 -3
32 -6 37 -50 4 -36 3 -48 -7 -48 -7 0 -13 6 -13 13 0 8 -3 8 -8 2 -14 -21 -90
-35 -186 -35 l-97 0 -53 -50 c-29 -27 -56 -50 -59 -50 -4 0 -7 13 -7 30 0 26
13 38 111 110 87 62 119 80 145 80 19 0 34 -4 34 -10z m577 3 c-10 -3 -17 -12
-15 -21 5 -25 105 -30 115 -7 3 10 0 21 -8 26 -10 6 -3 9 21 9 50 0 260 -150
260 -186 0 -33 -20 -30 -56 7 -48 50 -70 57 -209 61 -111 4 -130 7 -133 21 -2
10 -10 17 -18 17 -10 0 -14 12 -14 40 0 40 0 40 38 39 20 -1 29 -3 19 -6z
m-3420 -45 c-3 -8 -6 -5 -6 6 -1 11 2 17 5 13 3 -3 4 -12 1 -19z m3881 -64
c-10 -10 -28 6 -28 24 0 15 1 15 17 -1 9 -9 14 -19 11 -23z m538 9 c16 -22 17
-33 4 -33 -5 0 -10 7 -10 15 0 8 -4 15 -10 15 -5 0 -10 5 -10 10 0 15 11 12
26 -7z m-4762 -51 c2 -4 -13 -6 -35 -4 -26 3 -52 -3 -79 -17 -22 -11 -40 -17
-40 -13 0 8 29 25 60 35 24 8 88 8 94 -1z m214 -29 c-10 -2 -28 -2 -40 0 -13
2 -5 4 17 4 22 1 32 -1 23 -4z m2882 3 c0 -2 -12 -12 -27 -21 l-28 -18 19 21
c17 20 36 29 36 18z m5070 -42 c0 -27 -4 -43 -10 -39 -5 3 -10 24 -10 46 0 21
5 39 10 39 6 0 10 -21 10 -46z m-9310 -4 c0 -22 -4 -40 -10 -40 -11 0 -14 63
-3 73 11 12 13 8 13 -33z m5960 19 c0 -5 -4 -9 -10 -9 -5 0 -10 7 -10 16 0 8
5 12 10 9 6 -3 10 -10 10 -16z m-4650 -30 c0 -19 -5 -29 -15 -29 -8 0 -15 5
-15 10 0 6 -11 10 -24 10 -48 0 -40 36 9 42 40 5 45 2 45 -33z m-136 25 c17
-7 22 -34 6 -34 -5 0 -10 -6 -10 -14 0 -33 -18 -23 -28 14 -10 42 -5 48 32 34z
m4823 -81 c-9 -8 -27 7 -27 23 0 8 -5 14 -11 14 -5 0 -7 5 -4 10 4 6 15 0 27
-15 11 -14 18 -29 15 -32z m-6107 11 c0 -2 -19 -3 -42 -3 -39 1 -41 2 -13 8
28 7 55 4 55 -5z m9680 -25 c0 -10 -4 -19 -10 -19 -5 0 -10 12 -10 26 0 14 4
23 10 19 6 -3 10 -15 10 -26z m-8217 14 c-7 -2 -19 -2 -25 0 -7 3 -2 5 12 5
14 0 19 -2 13 -5z m-186 -9 c-3 -3 -12 -4 -19 -1 -8 3 -5 6 6 6 11 1 17 -2 13
-5z m4843 -24 c0 -5 -4 -10 -10 -10 -5 0 -10 5 -10 10 0 6 5 10 10 10 6 0 10
-4 10 -10z m2863 -20 c104 -20 197 -48 165 -49 -57 -3 -192 24 -298 59 l-25 8
27 1 c15 1 74 -8 131 -19z m-2844 -19 c-15 -5 -22 6 -14 19 6 9 10 9 16 -1 5
-8 4 -15 -2 -18z m41 -72 c0 -5 -4 -9 -10 -9 -5 0 -10 7 -10 15 0 8 -4 15 -10
15 -5 0 -10 8 -10 18 1 14 4 13 20 -7 11 -13 20 -27 20 -32z m23 -49 c19 -23
22 -40 7 -40 -5 0 -10 7 -10 15 0 9 -7 18 -15 21 -8 4 -15 10 -15 15 0 15 15
10 33 -11z m43 -77 c18 -24 17 -44 -1 -37 -8 4 -15 12 -15 20 0 8 -4 14 -10
14 -5 0 -10 5 -10 10 0 16 22 12 36 -7z m37 -78 c9 -13 13 -26 8 -29 -8 -5
-41 34 -41 49 0 12 16 3 33 -20z m33 -72 c7 -10 13 -25 13 -33 1 -10 -6 -6
-19 10 -11 14 -20 28 -20 33 0 12 12 8 26 -10z m54 -112 c0 -8 -10 -3 -25 13
-14 15 -22 32 -19 38 8 12 43 -29 44 -51z m24 -46 c25 -38 18 -53 -9 -20 -14
17 -25 33 -25 38 0 15 18 6 34 -18z m40 -79 c9 -14 12 -27 7 -30 -8 -5 -41 35
-41 49 0 13 19 3 34 -19z m46 -105 c0 -11 -7 -7 -24 14 -13 16 -22 34 -18 39
7 12 42 -31 42 -53z m30 -51 c7 -17 10 -33 7 -37 -4 -3 -10 3 -14 13 -3 10
-12 23 -20 27 -17 10 -17 27 1 27 7 0 19 -14 26 -30z m75 -151 c9 -17 14 -34
10 -37 -8 -8 -44 38 -45 56 0 23 19 12 35 -19z m405 -1300 c0 -5 -7 -9 -15 -9
-15 0 -20 12 -9 23 8 8 24 -1 24 -14z m122 -75 c14 -5 12 -13 -15 -57 -17 -29
-32 -54 -34 -56 -7 -10 -43 48 -49 78 -5 26 -3 37 10 47 16 11 28 10 88 -12z
m-4598 -36 c0 -31 -6 -54 -18 -67 -18 -20 -19 -20 -52 36 -19 31 -33 57 -31
59 10 10 56 23 77 21 23 -2 25 -6 24 -49z"/>
<path d="M3542 7818 c-1 -54 1 -98 6 -98 4 0 15 9 25 20 15 17 15 20 1 20 -8
0 -12 5 -9 10 4 6 2 16 -4 23 -5 7 -11 37 -14 67 -2 35 -4 20 -5 -42z"/>
<path d="M2728 7623 c7 -3 16 -2 19 1 4 3 -2 6 -13 5 -11 0 -14 -3 -6 -6z"/>
<path d="M6778 10023 c7 -3 16 -2 19 1 4 3 -2 6 -13 5 -11 0 -14 -3 -6 -6z"/>
<path d="M6673 9949 c-30 -9 -55 -29 -36 -29 4 0 14 -4 22 -9 11 -7 8 -16 -14
-45 -17 -22 -29 -53 -33 -81 -5 -47 -16 -59 -25 -26 -2 10 -16 20 -32 23 -22
5 -26 3 -22 -13 4 -14 -1 -21 -19 -25 -14 -4 -24 -13 -24 -24 0 -22 56 -65 65
-50 8 12 55 13 55 1 0 -5 -5 -11 -11 -13 -17 -6 -3 -71 20 -100 16 -19 28 -23
82 -23 52 0 70 4 97 24 17 14 32 29 32 33 0 5 14 36 30 70 35 71 37 103 10
191 -21 67 -40 93 -63 84 -7 -3 -24 1 -38 9 -28 15 -51 16 -96 3z"/>
<path d="M6520 9633 c0 -5 0 -235 0 -513 0 -315 -4 -511 -10 -520 -8 -12 -10
-11 -10 8 0 12 -4 22 -10 22 -5 0 -9 19 -9 43 l2 42 7 -40 7 -40 2 42 c0 23
-3 45 -9 48 -5 3 -10 14 -9 23 0 14 2 13 9 -3 8 -18 9 -17 9 8 1 17 -4 27 -13
27 -11 0 -15 -18 -18 -72 -3 -63 0 -79 21 -118 27 -49 42 -64 51 -50 10 16 0
1100 -10 1100 -6 0 -10 -3 -10 -7z"/>
<path d="M7854 9285 c0 -77 2 -107 3 -67 2 40 2 103 0 140 -2 37 -3 4 -3 -73z"/>
<path d="M6467 9373 c-4 -3 -7 -134 -7 -290 0 -276 0 -283 20 -283 14 0 20 7
20 21 0 11 -4 17 -10 14 -6 -4 -9 27 -8 84 2 50 7 91 12 91 4 0 4 6 -2 13 -11
13 -11 67 1 67 4 0 7 5 7 11 0 5 -4 7 -10 4 -6 -4 -10 8 -10 29 0 19 6 37 13
39 9 4 8 8 -3 16 -10 7 -11 11 -2 11 6 0 12 9 12 20 0 11 -4 20 -10 20 -5 0
-10 24 -10 54 0 30 5 58 10 61 6 3 10 10 10 16 0 10 -23 12 -33 2z"/>
<path d="M7940 9096 c0 -2 8 -10 18 -17 15 -13 16 -12 3 4 -13 16 -21 21 -21
13z"/>
<path d="M10785 9034 c-8 -8 -15 -21 -15 -27 0 -7 -9 -64 -20 -127 -12 -63
-25 -146 -30 -184 l-10 -68 40 -40 c28 -28 39 -46 35 -59 -5 -15 1 -18 47 -21
29 -2 110 -2 180 0 l127 3 3 26 c2 22 13 30 63 49 l60 22 -2 84 c-3 82 -20
273 -28 315 -6 26 -33 30 -272 37 -138 5 -164 3 -178 -10z m59 -20 c-1 -5 -9
-81 -18 -169 -21 -200 -22 -205 -46 -205 -33 0 -33 -14 6 245 9 61 21 118 26
128 9 18 34 18 32 1z m362 -19 c22 -147 30 -355 14 -355 -8 0 -40 361 -33 373
6 10 16 1 19 -18z"/>
<path d="M3575 9033 c-39 -3 -54 -7 -45 -13 12 -7 12 -37 1 -201 -8 -126 -16
-196 -24 -202 -7 -4 -27 -6 -44 -4 -50 5 -40 -7 30 -34 48 -18 63 -29 65 -46
3 -17 10 -23 30 -23 15 0 93 -3 175 -6 146 -6 147 -6 147 16 0 12 16 38 36 58
35 37 35 38 29 102 -7 82 -45 308 -56 338 -8 21 -12 22 -146 20 -76 -1 -165
-3 -198 -5z"/>
<path d="M7854 8770 c0 -58 1 -81 3 -52 2 28 2 76 0 105 -2 28 -3 5 -3 -53z"/>
<path d="M12605 8680 c3 -5 10 -10 16 -10 5 0 9 5 9 10 0 6 -7 10 -16 10 -8 0
-12 -4 -9 -10z"/>
<path d="M6345 8530 c-3 -5 1 -10 9 -10 9 0 16 5 16 10 0 6 -4 10 -9 10 -6 0
-13 -4 -16 -10z"/>
<path d="M2049 8065 c-4 -48 -2 -59 8 -62 6 -2 12 13 15 37 2 28 0 40 -9 40
-7 0 -13 -7 -14 -15z"/>
<path d="M6160 8010 c-11 -22 -16 -40 -12 -40 5 0 16 18 25 40 8 22 14 40 11
40 -2 0 -13 -18 -24 -40z"/>
<path d="M12619 7748 c4 -13 6 -29 4 -35 -3 -7 0 -13 7 -13 6 0 8 -4 5 -10 -3
-5 -2 -10 3 -10 5 0 8 20 8 45 -1 36 -5 45 -18 45 -14 0 -16 -5 -9 -22z"/>
<path d="M9310 7731 c8 -5 80 -16 160 -25 444 -52 589 -79 955 -176 189 -50
275 -53 275 -10 0 14 -12 19 -65 25 -59 6 -66 9 -80 37 -8 17 -15 39 -15 48 0
14 -9 17 -42 17 -24 -1 -122 6 -218 16 -96 9 -258 24 -360 32 -102 8 -212 17
-245 20 -107 9 -340 25 -360 25 -16 -1 -17 -2 -5 -9z"/>
<path d="M12574 7669 c-3 -5 6 -9 20 -9 31 0 34 6 6 13 -11 3 -23 1 -26 -4z"/>
<path d="M6915 6566 c-39 -17 -85 -71 -84 -99 l0 -22 16 23 c8 12 22 22 29 22
18 0 18 2 -6 -45 -18 -35 -20 -59 -20 -205 l0 -165 26 43 c14 23 38 49 55 57
l29 15 -30 -47 c-40 -63 -60 -132 -60 -208 0 -33 -4 -65 -9 -71 -5 -5 -11 -51
-14 -102 -4 -88 -3 -95 20 -122 42 -51 65 -53 604 -48 488 5 497 5 531 26 20
12 40 35 46 50 6 15 12 89 14 164 2 91 8 142 16 150 9 9 12 6 12 -15 0 -27 1
-27 70 -27 l69 0 8 38 c9 43 7 194 -5 267 l-7 50 -68 5 c-37 3 -67 2 -67 -2 0
-5 -7 -8 -15 -8 -11 0 -15 13 -15 55 0 51 -15 103 -33 116 -5 3 -7 10 -5 15 1
4 -10 16 -27 25 -25 14 -71 18 -279 23 -137 3 -251 8 -254 11 -3 3 1 5 8 5 9
0 8 6 -5 20 -17 19 -31 20 -269 20 -186 -1 -259 -4 -281 -14z m1152 -308 c-3
-8 -6 -5 -6 6 -1 11 2 17 5 13 3 -3 4 -12 1 -19z m-807 -62 c-1 -5 4 -12 11
-17 8 -5 -3 -11 -30 -19 -36 -9 -48 -8 -78 7 -46 23 -44 37 4 43 45 6 95 -1
93 -14z m-26 -72 c40 -15 -5 -69 -48 -58 -36 9 -52 39 -29 53 20 12 54 14 77
5z m556 -144 c0 -5 -9 -10 -19 -10 -11 0 -23 5 -26 10 -4 6 5 10 19 10 14 0
26 -4 26 -10z"/>
<path d="M7550 6559 c0 -7 16 -8 48 -3 64 9 66 14 4 14 -30 0 -52 -4 -52 -11z"/>
<path d="M9250 6398 c0 -14 39 -68 40 -55 0 11 -29 67 -35 67 -3 0 -5 -6 -5
-12z"/>
<path d="M6800 6348 c0 -10 -29 -13 -106 -14 -58 -1 -110 -6 -115 -11 -11 -11
-17 -408 -7 -419 4 -4 52 -9 107 -12 92 -4 100 -6 110 -28 26 -58 31 -20 31
236 0 167 -4 260 -10 260 -5 0 -10 -6 -10 -12z m0 -123 c0 -43 -4 -75 -10 -75
-11 0 -14 133 -3 143 12 13 13 7 13 -68z"/>
<path d="M9290 6318 c0 -13 39 -68 40 -57 0 9 -31 69 -36 69 -2 0 -4 -6 -4
-12z"/>
<path d="M9360 6163 c1 -10 39 -60 40 -51 0 14 -23 58 -32 58 -4 0 -8 -3 -8
-7z"/>
<path d="M9400 6085 c0 -8 4 -15 9 -15 5 0 11 -10 14 -22 4 -12 9 -19 12 -16
6 6 -21 68 -30 68 -3 0 -5 -7 -5 -15z"/>
<path d="M9460 5979 c0 -4 7 -20 15 -35 8 -16 15 -22 15 -13 0 14 -29 61 -30
48z"/>
<path d="M9500 5896 c0 -8 4 -17 9 -20 5 -4 7 3 4 14 -6 23 -13 26 -13 6z"/>
<path d="M9510 5855 c0 -3 9 -16 21 -28 l21 -22 -13 28 c-11 23 -29 37 -29 22z"/>
<path d="M9550 5788 c0 -9 5 -20 10 -23 13 -8 13 5 0 25 -8 13 -10 13 -10 -2z"/>
<path d="M9583 5720 c6 -16 15 -30 18 -30 4 0 2 14 -4 30 -6 17 -15 30 -18 30
-4 0 -2 -13 4 -30z"/>
<path d="M5096 4038 c-12 -17 -16 -48 -16 -118 0 -148 -14 -140 251 -140 l219
0 0 -695 0 -694 23 -13 c30 -18 264 -18 295 0 l22 13 0 694 0 695 219 0 c265
0 251 -8 251 140 0 70 -4 101 -16 118 l-15 22 -609 0 -609 0 -15 -22z"/>
<path d="M6608 4045 c-17 -10 -31 -29 -37 -53 -15 -51 -15 -1503 0 -1554 18
-65 31 -68 336 -68 147 0 309 5 358 11 363 45 579 225 666 556 26 98 37 350
21 471 -44 324 -245 549 -557 623 -80 19 -127 22 -425 25 -287 4 -339 2 -362
-11z m627 -270 c186 -40 300 -151 352 -345 24 -89 24 -327 0 -423 -39 -155
-112 -254 -230 -312 -88 -42 -163 -55 -330 -55 l-127 0 0 575 1 575 132 0 c78
0 161 -6 202 -15z"/>
<path d="M8132 4053 c-59 -11 -63 4 224 -854 229 -682 273 -804 294 -818 35
-23 365 -24 400 0 24 16 40 62 430 1223 72 213 130 398 128 409 -5 35 -44 47
-158 46 -173 0 -135 67 -347 -609 -101 -322 -195 -623 -210 -670 l-26 -85 -27
85 c-15 47 -75 236 -133 420 -170 537 -255 804 -262 822 -4 9 -20 21 -37 27
-30 11 -228 13 -276 4z"/>
</g>
</svg>
